<svg width="32" height="32" viewBox="0 0 32 32" xmlns="http://www.w3.org/2000/svg">
  <!-- 背景 -->
  <rect width="32" height="32" fill="#1a1a1a" rx="6"/>

  <!-- Rust 齿轮图标 -->
  <g transform="translate(16, 16)">
    <!-- 外圈齿轮 -->
    <circle cx="0" cy="0" r="10" fill="none" stroke="#CE422B" stroke-width="1.5"/>

    <!-- 8个齿轮齿 -->
    <path d="M 0,-12 L 1,-10 L -1,-10 Z" fill="#CE422B"/>
    <path d="M 8.5,-8.5 L 10,-7 L 7,-10 Z" fill="#CE422B"/>
    <path d="M 12,0 L 10,1 L 10,-1 Z" fill="#CE422B"/>
    <path d="M 8.5,8.5 L 7,10 L 10,7 Z" fill="#CE422B"/>
    <path d="M 0,12 L -1,10 L 1,10 Z" fill="#CE422B"/>
    <path d="M -8.5,8.5 L -7,7 L -10,10 Z" fill="#CE422B"/>
    <path d="M -12,0 L -10,-1 L -10,1 Z" fill="#CE422B"/>
    <path d="M -8.5,-8.5 L -10,-7 L -7,-10 Z" fill="#CE422B"/>

    <!-- 内圈 -->
    <circle cx="0" cy="0" r="6" fill="none" stroke="#CE422B" stroke-width="1.5"/>

    <!-- 中心R标记 -->
    <text x="0" y="3" font-family="Arial, sans-serif" font-size="8" font-weight="bold" fill="#CE422B" text-anchor="middle">R</text>
  </g>
</svg>
